<svg id="Capa_1" data-name="Capa 1" xmlns="http://www.w3.org/2000/svg" viewBox="0 0 1080 1080"><defs><style>.cls-1{fill:#fff;}</style></defs><path class="cls-1" d="M540,40C263.86,40,40,263.86,40,540s223.86,500,500,500,500-223.86,500-500S816.14,40,540,40ZM225.24,300.62a5.57,5.57,0,0,1,5.55-5.56H596.86a5.57,5.57,0,0,1,5.55,5.56V591.1a5.57,5.57,0,0,1-5.55,5.56H230.79a5.57,5.57,0,0,1-5.55-5.56Zm680.37,323v68.76a6.76,6.76,0,0,1-6.77,6.71H844.61a78.2,78.2,0,0,1,1.58,15.64c0,43.33-35.44,78.45-79.15,78.45s-79.15-35.12-79.15-78.45a78.2,78.2,0,0,1,1.58-15.64H437.07a78.2,78.2,0,0,1,1.58,15.64c0,43.33-35.44,78.45-79.15,78.45s-79.15-35.12-79.15-78.45a78.2,78.2,0,0,1,1.58-15.64H209.7a6.76,6.76,0,0,1-6.77-6.71V628.09a6.76,6.76,0,0,1,6.77-6.71H631.38c-.61-.32-1-1-1-2.2V528.64a5.85,5.85,0,0,1,0-.62,6,6,0,0,1,0-.62V469.27a4.62,4.62,0,0,1,.1-1,4.45,4.45,0,0,1-.1-1V328.7a7.11,7.11,0,0,1,6.76-7s71.69-3,97,4.76c12.57,3.86,69.66,28.55,81.07,141.77a22.36,22.36,0,0,1,5.68,2.64l79.15,54.91a8.45,8.45,0,0,1,.92.73c3,.44,3.67,3.19,3.67,6.54v1.09c9.54,2,16.76,11.56,16.76,23.06s-7.22,21-16.76,23v38.92a2.49,2.49,0,0,1-.66,2C905,621.35,905.61,622,905.61,623.62Z"/><path class="cls-1" d="M897.19,533.74c-11.33,0-20.51,10.51-20.51,23.47s9.18,23.46,20.51,23.46h3.72a18,18,0,0,0,3.75-.41V534.15a18,18,0,0,0-3.75-.41Z"/><path class="cls-1" d="M730.17,342.12c-20.78-5.7-84-4.47-84-4.47V453.91H797.49C784.83,373.72,742.59,345.52,730.17,342.12Z"/><path class="cls-1" d="M359.5,636.29a79,79,0,0,0-77.57,62.8h16.25a63.47,63.47,0,0,1,122.64,0h16.25A79,79,0,0,0,359.5,636.29Z"/><path class="cls-1" d="M767,636.29a79,79,0,0,0-77.57,62.8h16.25a63.47,63.47,0,0,1,122.64,0h16.25A79,79,0,0,0,767,636.29Z"/><path class="cls-1" d="M359.5,777.47c35,0,63.3-28.09,63.3-62.74a62.53,62.53,0,0,0-2-15.64H298.18a62.53,62.53,0,0,0-2,15.64C296.2,749.38,324.54,777.47,359.5,777.47Z"/><path class="cls-1" d="M767,777.47c35,0,63.3-28.09,63.3-62.74a62.53,62.53,0,0,0-2-15.64H705.72a62.53,62.53,0,0,0-2,15.64C703.74,749.38,732.08,777.47,767,777.47Z"/></svg>