<svg id="Capa_1" data-name="Capa 1" xmlns="http://www.w3.org/2000/svg" viewBox="0 0 1080 1080"><defs><style>.cls-1{fill:#fff;}</style></defs><path class="cls-1" d="M540,40C263.86,40,40,263.86,40,540s223.86,500,500,500,500-223.86,500-500S816.14,40,540,40ZM793.34,599.54c-27.19,57.7-97.08,167.15-249,211.75,0,0-203.41-90.28-243.16-242.35a167.15,167.15,0,0,1-12.4-67.07C290.61,413.35,360.11,343,444,344.78c45.11.93,85.24,22.57,112.37,56.15,28.53-32.4,69.48-52.36,114.63-51.38,83.9,1.74,150.44,74.93,148.55,163.42A165.34,165.34,0,0,1,793.34,599.54Z"/></svg>