<svg id="Capa_1" data-name="Capa 1" xmlns="http://www.w3.org/2000/svg" viewBox="0 0 1080 1080"><defs><style>.cls-1{fill:#fff;}</style></defs><path class="cls-1" d="M540,40C263.86,40,40,263.86,40,540s223.86,500,500,500,500-223.86,500-500S816.14,40,540,40ZM402.82,761c-.61,21.44-13.66,33.55-35.24,34.93a237.17,237.17,0,0,1-31.88,0C314.33,794.42,302,782.07,301,760.44c-.83-17-.17-34-.2-51,0-15.6-.55-31.21.1-46.78,1-23.75,13.64-36,37.55-37.18,9.2-.44,18.45-.45,27.64,0,23,1.2,36.2,13.16,36.8,35.62Q404.19,711,402.82,761Zm136.7-.47c-.28,21.59-13.39,33.86-34.83,35.39a253,253,0,0,1-29.79.12c-23.87-1.14-36.71-13.52-37.32-37.42-.71-27.65-.17-55.34-.18-83,0-26.26-.4-52.52.09-78.76.48-26.48,13.06-38.92,39.31-39.82a268.77,268.77,0,0,1,27.67.15c21.51,1.52,34.74,13.67,35,35.19Q540.63,676.47,539.52,760.56Zm137-6.2c-.27,29-12.68,41.2-41.69,41.8-8.52.17-17.08.44-25.55-.19-21.46-1.62-34.66-13.81-34.83-35.45q-.92-118.2,0-236.41c.18-21.55,13.5-33.71,35-35.23a266.18,266.18,0,0,1,27.68-.15c26.25.9,39,13.36,39.29,39.86.48,38.33.12,76.68.13,115C676.55,680.52,676.81,717.44,676.47,754.36ZM644,427.81l-38.61-46c-20.65,13.89-40.93,27.9-61.57,41.35C473.54,469,398.5,503.54,315.83,520.25c-25.38,5.13-44-4.3-48.4-25.14-4.06-19.36,8.36-35.79,33.43-41.06,96.68-20.31,179.9-68.17,260.68-125.53L522.91,281,710.59,249.5C688.12,309.63,666.71,366.94,644,427.81ZM813.24,608.26c0,47.58.12,95.17,0,142.76-.11,33.15-11.87,44.84-44.82,45.16-7.1.07-14.23.32-21.3-.14-22.68-1.47-35.94-13.7-36.06-36.51q-.74-151.28,0-302.56c.11-22.8,13.37-35.07,36.05-36.48,8.49-.53,17-.35,25.56-.12,27.54.74,40.27,13.16,40.49,40.87C813.51,510.24,813.23,559.25,813.24,608.26Z"/></svg>