<svg id="Capa_1" data-name="Capa 1" xmlns="http://www.w3.org/2000/svg" viewBox="0 0 1080 1080"><defs><style>.cls-1{fill:#fff;}</style></defs><path class="cls-1" d="M540,40C263.86,40,40,263.86,40,540s223.86,500,500,500,500-223.86,500-500S816.14,40,540,40ZM683.5,820.17a43.37,43.37,0,0,1-43.37,43.37H392.6a43.37,43.37,0,0,1-43.37-43.37V287.69a43.36,43.36,0,0,1,43.37-43.36H640.13a43.36,43.36,0,0,1,43.37,43.36Z"/><rect class="cls-1" x="370.91" y="336.49" width="289.84" height="432.64"/><rect class="cls-1" x="479.08" y="802.25" width="75.7" height="26.97" rx="12.3"/><rect class="cls-1" x="479.08" y="276.39" width="75.7" height="26.97" rx="12.3"/></svg>