<svg id="Capa_1" data-name="Capa 1" xmlns="http://www.w3.org/2000/svg" viewBox="0 0 1080 1080"><defs><style>.cls-1{fill:#fff;}</style></defs><path class="cls-1" d="M540,40C263.86,40,40,263.86,40,540s223.86,500,500,500,500-223.86,500-500S816.14,40,540,40Zm0,795.28c-167.55,0-303.37-135.82-303.37-303.37S372.45,228.54,540,228.54,843.37,364.37,843.37,531.91,707.55,835.28,540,835.28Z"/><path class="cls-1" d="M540,244.31c-158.84,0-287.61,128.76-287.61,287.6S381.16,819.52,540,819.52,827.61,690.75,827.61,531.91,698.84,244.31,540,244.31Zm0,564.78c-153.09,0-277.18-124.09-277.18-277.18S386.91,254.73,540,254.73s277.18,124.1,277.18,277.18S693.08,809.09,540,809.09Z"/><path class="cls-1" d="M540,324.84c-114.36,0-207.07,92.71-207.07,207.07S425.64,739,540,739s207.07-92.71,207.07-207.07S654.36,324.84,540,324.84Zm0,401.82c-107.55,0-194.74-87.19-194.74-194.75S432.44,337.15,540,337.15s194.76,87.2,194.76,194.76S647.56,726.66,540,726.66Z"/><path class="cls-1" d="M561.94,509.29q-17-5.78-26.56-10.15t-13.44-7.91a11.65,11.65,0,0,1-3.88-9,10.41,10.41,0,0,1,5.36-9.49q5.37-3.21,18.56-3.21,27.71,0,62.18,15.5l19.63-47q-33.31-14.34-66.14-16.16V385.6H523.51v36.6q-35,3.63-52.45,19t-17.49,42.55q0,17.82,5.86,29.77t18.72,21.61Q491,544.74,512,552.5q18.63,6.76,29.61,11.55t15.67,8.57a11.51,11.51,0,0,1,4.7,9.24q0,7.92-6.52,11.3t-20.53,3.38q-17,0-39.42-6.52a237.27,237.27,0,0,1-41.57-16.24v54.76a196,196,0,0,0,69.61,16.16v43.15h34.14V643.71q33.65-4.11,51.21-21.44t17.57-45q0-24.57-15-40.16T561.94,509.29Z"/></svg>