<svg id="Capa_1" data-name="Capa 1" xmlns="http://www.w3.org/2000/svg" viewBox="0 0 1024 1024"><defs><style>.cls-1{fill:#fff;}.cls-2{fill:none;}.cls-3{fill:#df040b;}</style></defs><path class="cls-1" d="M178,668.16H167.07l-5.29,30.47H159l5.3-30.47H153.42l.43-2.34h24.54Z"/><path class="cls-1" d="M175.79,686.21a16.06,16.06,0,0,1,2.17-6.48,12.37,12.37,0,0,1,4.38-4.47A10.58,10.58,0,0,1,188,673.8a8.54,8.54,0,0,1,5.15,1.65,9.23,9.23,0,0,1,3.11,4.4A14.4,14.4,0,0,1,197,686l0,.43a15.41,15.41,0,0,1-4.09,9.26,10.69,10.69,0,0,1-8.19,3.38,8.3,8.3,0,0,1-6.56-3,11.62,11.62,0,0,1-2.41-7.8l.07-1.28Zm2.62.77a12.15,12.15,0,0,0,.39,4.94,7.27,7.27,0,0,0,2.2,3.55,5.85,5.85,0,0,0,3.76,1.35,7.79,7.79,0,0,0,4.45-1.23,10,10,0,0,0,3.33-3.63,14.69,14.69,0,0,0,1.69-5.18l.06-.75a11.06,11.06,0,0,0-1.34-7.11,5.79,5.79,0,0,0-5.06-2.83,7.82,7.82,0,0,0-6.23,2.79,13.55,13.55,0,0,0-3.21,7.69Z"/><path class="cls-1" d="M201.53,686.37a19.94,19.94,0,0,1,2.09-6.79,11.26,11.26,0,0,1,3.87-4.41,8.94,8.94,0,0,1,5.12-1.37,8.6,8.6,0,0,1,3.95,1,6.88,6.88,0,0,1,2.81,2.89L221.85,664h2.66l-6,34.61H216l.61-3.25a9.47,9.47,0,0,1-7.89,3.7,6.57,6.57,0,0,1-5.33-2.65,11.63,11.63,0,0,1-2-6.88,18.55,18.55,0,0,1,.11-2.71Zm2.7.45a22.14,22.14,0,0,0-.14,3.21,8.22,8.22,0,0,0,1.44,4.85,4.71,4.71,0,0,0,3.81,1.85,7.53,7.53,0,0,0,4.4-1.14,10.64,10.64,0,0,0,3.2-3.24l2-11.47a7,7,0,0,0-2.15-3.43,6.05,6.05,0,0,0-3.82-1.31,6.81,6.81,0,0,0-5.71,2.62,14.54,14.54,0,0,0-2.94,7.59Z"/><path class="cls-1" d="M226.2,686.21a16,16,0,0,1,2.16-6.48,12.39,12.39,0,0,1,4.39-4.47,10.56,10.56,0,0,1,5.69-1.46,8.51,8.51,0,0,1,5.14,1.65,9.16,9.16,0,0,1,3.11,4.4,14.24,14.24,0,0,1,.67,6.16l-.05.43a15.35,15.35,0,0,1-4.09,9.26,10.67,10.67,0,0,1-8.19,3.38,8.28,8.28,0,0,1-6.55-3,11.62,11.62,0,0,1-2.42-7.8l.07-1.28Zm2.61.77a12.32,12.32,0,0,0,.4,4.94,7.27,7.27,0,0,0,2.2,3.55,5.82,5.82,0,0,0,3.76,1.35,7.82,7.82,0,0,0,4.45-1.23,10,10,0,0,0,3.32-3.63,14.5,14.5,0,0,0,1.69-5.18l.07-.75a11.13,11.13,0,0,0-1.34-7.11,5.8,5.8,0,0,0-5.06-2.83,7.82,7.82,0,0,0-6.23,2.79,13.55,13.55,0,0,0-3.21,7.69Z"/><path class="cls-1" d="M265,698.63h-2.7l6-34.61H271Z"/><path class="cls-1" d="M272.86,686.21a16.06,16.06,0,0,1,2.17-6.48,12.37,12.37,0,0,1,4.38-4.47,10.58,10.58,0,0,1,5.69-1.46,8.54,8.54,0,0,1,5.15,1.65,9.23,9.23,0,0,1,3.11,4.4A14.4,14.4,0,0,1,294,686l0,.43a15.41,15.41,0,0,1-4.09,9.26,10.69,10.69,0,0,1-8.19,3.38,8.3,8.3,0,0,1-6.56-3,11.62,11.62,0,0,1-2.41-7.8l.07-1.28Zm2.62.77a12.15,12.15,0,0,0,.39,4.94,7.27,7.27,0,0,0,2.2,3.55,5.85,5.85,0,0,0,3.76,1.35,7.79,7.79,0,0,0,4.45-1.23,10,10,0,0,0,3.33-3.63,14.69,14.69,0,0,0,1.69-5.18l.06-.75a11.06,11.06,0,0,0-1.34-7.11,5.79,5.79,0,0,0-5.06-2.83,7.82,7.82,0,0,0-6.23,2.79,13.55,13.55,0,0,0-3.21,7.69Z"/><path class="cls-1" d="M309.73,686.35a17.39,17.39,0,0,1,3.73-9.24,9.38,9.38,0,0,1,11.27-2.36,7,7,0,0,1,2.87,2.81l.78-3.31h2.53L325.05,708h-2.68l2.3-12.39a9.47,9.47,0,0,1-7.73,3.47,6.57,6.57,0,0,1-5.35-2.61,11.43,11.43,0,0,1-2-6.9,18.94,18.94,0,0,1,.11-2.73Zm2.68.47-.16,2.12a10.15,10.15,0,0,0,1.27,5.74,4.7,4.7,0,0,0,4,2.14,7.53,7.53,0,0,0,4.15-1,10.17,10.17,0,0,0,3.35-3.2l2.05-12a6.84,6.84,0,0,0-2.2-3.26,6.15,6.15,0,0,0-3.75-1.27,6.83,6.83,0,0,0-5.79,2.73,15,15,0,0,0-2.91,7.53Z"/><path class="cls-1" d="M350,695.56a9.33,9.33,0,0,1-8,3.52,6,6,0,0,1-5.14-2.49c-1.12-1.62-1.53-3.86-1.21-6.73l2.61-15.61h2.66l-2.59,15.68a11.43,11.43,0,0,0,0,2.41,4.94,4.94,0,0,0,1.24,3.2,4.12,4.12,0,0,0,3,1.19,8.82,8.82,0,0,0,5-1.25,6.28,6.28,0,0,0,3-3.57l3-17.66h2.7L352,698.63h-2.61Z"/><path class="cls-1" d="M368.29,699.08a8.51,8.51,0,0,1-5.07-1.64,9.08,9.08,0,0,1-3.14-4.32,13.35,13.35,0,0,1-.71-5.92l.06-.76a16.25,16.25,0,0,1,2-6.44,12.42,12.42,0,0,1,4.28-4.66,9.87,9.87,0,0,1,5.54-1.54,7.56,7.56,0,0,1,4.61,1.48,8.1,8.1,0,0,1,2.74,4,13.54,13.54,0,0,1,.54,5.68l-.18,1.65H362.09l-.06.54a10.58,10.58,0,0,0,.36,4.7,7.29,7.29,0,0,0,2.28,3.56,6,6,0,0,0,3.82,1.36,7.87,7.87,0,0,0,3.9-.83,12.39,12.39,0,0,0,3.2-2.42l1.58,1.29a11,11,0,0,1-3.91,3.21A10.85,10.85,0,0,1,368.29,699.08Zm2.84-23a7,7,0,0,0-5.25,2.08,13.49,13.49,0,0,0-3.49,6.15l14.15,0,.06-.34a7.87,7.87,0,0,0-1.12-5.51A5.15,5.15,0,0,0,371.13,676.09Z"/><path class="cls-1" d="M399.88,674.25l-.81,4.16a11.74,11.74,0,0,1,3.75-3.45,8.71,8.71,0,0,1,4.56-1.16,5.92,5.92,0,0,1,5.12,2.45c1.06,1.58,1.44,3.75,1.12,6.51L411,698.63h-2.66l2.66-15.9a13.67,13.67,0,0,0,0-2.47c-.25-2.67-1.71-4-4.37-4.12a7.25,7.25,0,0,0-4.42,1.41,12.19,12.19,0,0,0-3.6,4.37l-2.89,16.71h-2.66l4.24-24.38Z"/><path class="cls-1" d="M427.55,699.08a8.51,8.51,0,0,1-5.07-1.64,9.08,9.08,0,0,1-3.14-4.32,13.35,13.35,0,0,1-.71-5.92l.06-.76a16.25,16.25,0,0,1,2-6.44,12.42,12.42,0,0,1,4.28-4.66,9.87,9.87,0,0,1,5.54-1.54,7.56,7.56,0,0,1,4.61,1.48,8.1,8.1,0,0,1,2.74,4,13.54,13.54,0,0,1,.54,5.68l-.18,1.65H421.35l-.06.54a10.58,10.58,0,0,0,.36,4.7,7.29,7.29,0,0,0,2.28,3.56,6.05,6.05,0,0,0,3.82,1.36,7.87,7.87,0,0,0,3.9-.83,12.39,12.39,0,0,0,3.2-2.42l1.58,1.29a11,11,0,0,1-3.91,3.21A10.85,10.85,0,0,1,427.55,699.08Zm2.84-23a7.06,7.06,0,0,0-5.25,2.08,13.49,13.49,0,0,0-3.49,6.15l14.15,0,.06-.34a7.87,7.87,0,0,0-1.12-5.51A5.15,5.15,0,0,0,430.39,676.09Z"/><path class="cls-1" d="M450.67,696.82a7.12,7.12,0,0,0,4.7-1.47,7.47,7.47,0,0,0,2.71-4.23h2.55a9.32,9.32,0,0,1-3.55,5.85,10,10,0,0,1-6.55,2.13,8.2,8.2,0,0,1-4.95-1.62,8.61,8.61,0,0,1-2.9-4.31,15.46,15.46,0,0,1-.57-6.19l.09-1a17.56,17.56,0,0,1,1.16-4.6,13.75,13.75,0,0,1,2.37-3.95,11,11,0,0,1,3.55-2.73,9.85,9.85,0,0,1,4.66-.93,7.9,7.9,0,0,1,5.94,2.52,8.32,8.32,0,0,1,2.08,6.17l-2.55,0a6.54,6.54,0,0,0-1.46-4.55,5.46,5.46,0,0,0-4.13-1.83,7.27,7.27,0,0,0-4.93,1.63,10.27,10.27,0,0,0-3.22,4.84,19,19,0,0,0-1,6.65,9.12,9.12,0,0,0,1.62,5.58A5.58,5.58,0,0,0,450.67,696.82Z"/><path class="cls-1" d="M474.17,699.08a8.51,8.51,0,0,1-5.07-1.64,9.08,9.08,0,0,1-3.14-4.32,13.35,13.35,0,0,1-.71-5.92l.06-.76a16.25,16.25,0,0,1,2-6.44,12.42,12.42,0,0,1,4.28-4.66,9.87,9.87,0,0,1,5.54-1.54,7.56,7.56,0,0,1,4.61,1.48,8.1,8.1,0,0,1,2.74,4A13.54,13.54,0,0,1,485,685l-.18,1.65H468l-.06.54a10.58,10.58,0,0,0,.36,4.7,7.29,7.29,0,0,0,2.28,3.56,6,6,0,0,0,3.82,1.36,7.87,7.87,0,0,0,3.9-.83,12.39,12.39,0,0,0,3.2-2.42l1.58,1.29a11,11,0,0,1-3.91,3.21A10.85,10.85,0,0,1,474.17,699.08Zm2.84-23a7.06,7.06,0,0,0-5.25,2.08,13.49,13.49,0,0,0-3.49,6.15l14.15,0,.06-.34a7.87,7.87,0,0,0-1.12-5.51A5.15,5.15,0,0,0,477,676.09Z"/><path class="cls-1" d="M503.26,692.27q.36-3.1-3.79-4.5l-3.87-1.15q-5.34-1.8-5.05-6a6.28,6.28,0,0,1,2.81-5,10.3,10.3,0,0,1,6.29-1.85,8.66,8.66,0,0,1,5.82,2,6.28,6.28,0,0,1,2.07,5.26h-2.66a4.23,4.23,0,0,0-1.36-3.56,5.91,5.91,0,0,0-4-1.42,7.53,7.53,0,0,0-4.33,1.21,4.33,4.33,0,0,0-2,3.19c-.22,1.94,1,3.3,3.56,4.08l2.82.81,1.51.52q5.08,1.9,4.8,6.24a6.45,6.45,0,0,1-2.54,4.81,10.5,10.5,0,0,1-6.07,2.1l-.92,0a11,11,0,0,1-4.44-1,6.94,6.94,0,0,1-3-2.56,6.06,6.06,0,0,1-.93-3.78l2.68,0a4.53,4.53,0,0,0,1.56,3.63,6.57,6.57,0,0,0,4.28,1.37,8.29,8.29,0,0,0,4.6-1.23A4.49,4.49,0,0,0,503.26,692.27Z"/><path class="cls-1" d="M513.74,698.63H511l4.26-24.38H518ZM516,667.19c.08-1,.73-1.59,1.94-1.84a2.21,2.21,0,0,1,1.25.55,2.28,2.28,0,0,1,.49,1.29,2.46,2.46,0,0,1-.66,1.25,2.59,2.59,0,0,1-1.28.58Q515.94,668.75,516,667.19Z"/><path class="cls-1" d="M530.43,668l-1.08,6.25h4.89l-.38,2.21H529l-2.71,16.26,0,1.4q0,2.46,2.25,2.52a14.94,14.94,0,0,0,2.19-.15l-.11,2.2a8.59,8.59,0,0,1-2.71.34,4,4,0,0,1-3.45-1.65,7.2,7.2,0,0,1-.79-4.68l2.69-16.24h-4.37l.4-2.21h4.33l1.1-6.25Z"/><path class="cls-1" d="M550.76,698.63a9,9,0,0,1-.07-1.72l.2-1.69a12.63,12.63,0,0,1-3.86,2.87,10.37,10.37,0,0,1-4.7,1,7,7,0,0,1-5-2,5.85,5.85,0,0,1-1.73-4.79,7.15,7.15,0,0,1,1.66-4.18,9.43,9.43,0,0,1,4.2-2.75,18,18,0,0,1,6.11-1l5,0,.4-2.79a4.94,4.94,0,0,0-1.08-4,5.32,5.32,0,0,0-4-1.6,7.71,7.71,0,0,0-4.63,1.32,5.78,5.78,0,0,0-2.47,3.59h-2.63a7.53,7.53,0,0,1,3.29-5.22,11.08,11.08,0,0,1,6.71-2,7.79,7.79,0,0,1,5.8,2.28,6.81,6.81,0,0,1,1.66,5.68l-2,12.25-.18,2a9.76,9.76,0,0,0,.18,2.41l0,.27Zm-8-1.9a8.84,8.84,0,0,0,4.74-1.18,10.49,10.49,0,0,0,3.75-3.63l.93-5.39-4.3,0a13.6,13.6,0,0,0-6.7,1.46,5.21,5.21,0,0,0-2.86,4.17,3.92,3.92,0,0,0,1,3.27A4.63,4.63,0,0,0,542.78,696.73Z"/><path class="cls-1" d="M575.21,692.27c.24-2.07-1-3.57-3.79-4.5l-3.88-1.15q-5.34-1.8-5-6a6.27,6.27,0,0,1,2.8-5,10.35,10.35,0,0,1,6.3-1.85,8.62,8.62,0,0,1,5.81,2,6.26,6.26,0,0,1,2.08,5.26h-2.66a4.24,4.24,0,0,0-1.37-3.56,5.87,5.87,0,0,0-4-1.42,7.51,7.51,0,0,0-4.33,1.21,4.33,4.33,0,0,0-2,3.19q-.34,2.91,3.56,4.08l2.81.81,1.51.52q5.1,1.9,4.8,6.24a6.44,6.44,0,0,1-2.53,4.81,10.53,10.53,0,0,1-6.07,2.1l-.93,0a11,11,0,0,1-4.44-1,7,7,0,0,1-3-2.56,6.12,6.12,0,0,1-.92-3.78l2.68,0a4.55,4.55,0,0,0,1.55,3.63,6.61,6.61,0,0,0,4.29,1.37,8.23,8.23,0,0,0,4.59-1.23A4.5,4.5,0,0,0,575.21,692.27Z"/><path class="cls-1" d="M604,699.1a10,10,0,0,1-3.95-.89,6.93,6.93,0,0,1-3-2.65L594.81,708h-2.66L598,674.25h2.48l-.63,3.44a9.37,9.37,0,0,1,7.95-3.89,6.65,6.65,0,0,1,5.34,2.54,11.34,11.34,0,0,1,2,7,20.53,20.53,0,0,1-.13,2.75l-.09.63a20.19,20.19,0,0,1-2.12,6.81,11.23,11.23,0,0,1-3.79,4.27A8.72,8.72,0,0,1,604,699.1Zm8.3-13,.13-2.13a9.63,9.63,0,0,0-1.31-5.65,4.77,4.77,0,0,0-4.07-2.14,7.7,7.7,0,0,0-4.3,1.16,9.76,9.76,0,0,0-3.25,3.5l-2,11.73a6.16,6.16,0,0,0,2.29,3.15,7.18,7.18,0,0,0,9.28-1.3,14.18,14.18,0,0,0,3.06-7.12Z"/><path class="cls-1" d="M634,698.63a9.86,9.86,0,0,1-.07-1.72l.21-1.69a12.67,12.67,0,0,1-3.87,2.87,10.34,10.34,0,0,1-4.7,1,7,7,0,0,1-5-2,5.84,5.84,0,0,1-1.72-4.79,7.21,7.21,0,0,1,1.65-4.18,9.53,9.53,0,0,1,4.21-2.75,18,18,0,0,1,6.1-1l5,0,.41-2.79a4.94,4.94,0,0,0-1.08-4,5.36,5.36,0,0,0-4-1.6,7.69,7.69,0,0,0-4.63,1.32A5.74,5.74,0,0,0,624,681h-2.64a7.53,7.53,0,0,1,3.29-5.22,11.11,11.11,0,0,1,6.72-2,7.8,7.8,0,0,1,5.8,2.28,6.84,6.84,0,0,1,1.66,5.68l-2,12.25-.18,2a8.89,8.89,0,0,0,.18,2.41l0,.27Zm-8-1.9a8.84,8.84,0,0,0,4.74-1.18,10.49,10.49,0,0,0,3.75-3.63l.92-5.39-4.3,0a13.59,13.59,0,0,0-6.69,1.46,5.19,5.19,0,0,0-2.86,4.17,3.89,3.89,0,0,0,1,3.27A4.67,4.67,0,0,0,626,696.73Z"/><path class="cls-1" d="M657.92,676.52a9.61,9.61,0,0,0-1.78-.2,7.78,7.78,0,0,0-4.71,1.57,7.52,7.52,0,0,0-2.86,4l-2.88,16.77H643l4.23-24.38h2.64l-.81,3.87a9.65,9.65,0,0,1,3.21-3.29,7.58,7.58,0,0,1,4.13-1.08,6.59,6.59,0,0,1,1.85.32Z"/><path class="cls-1" d="M672.57,698.63a9,9,0,0,1-.07-1.72l.2-1.69a12.51,12.51,0,0,1-3.86,2.87,10.37,10.37,0,0,1-4.7,1,7,7,0,0,1-5-2,5.85,5.85,0,0,1-1.73-4.79,7.22,7.22,0,0,1,1.66-4.18,9.43,9.43,0,0,1,4.2-2.75,18,18,0,0,1,6.11-1l5,0,.4-2.79a4.94,4.94,0,0,0-1.08-4,5.32,5.32,0,0,0-4-1.6,7.71,7.71,0,0,0-4.63,1.32,5.77,5.77,0,0,0-2.46,3.59H660a7.53,7.53,0,0,1,3.29-5.22,11.08,11.08,0,0,1,6.71-2,7.83,7.83,0,0,1,5.81,2.28,6.84,6.84,0,0,1,1.65,5.68l-2,12.25-.18,2a9.76,9.76,0,0,0,.18,2.41l0,.27Zm-8-1.9a8.84,8.84,0,0,0,4.74-1.18,10.6,10.6,0,0,0,3.76-3.63l.92-5.39-4.3,0A13.6,13.6,0,0,0,663,688a5.21,5.21,0,0,0-2.86,4.17,3.92,3.92,0,0,0,1.05,3.27A4.63,4.63,0,0,0,664.59,696.73Z"/><path class="cls-1" d="M702.15,668l-1.08,6.25H706l-.38,2.21h-4.89L698,692.72l0,1.4q0,2.46,2.25,2.52a14.94,14.94,0,0,0,2.19-.15l-.12,2.2a8.49,8.49,0,0,1-2.7.34,4,4,0,0,1-3.45-1.65,7.2,7.2,0,0,1-.79-4.68L698,676.46h-4.37l.4-2.21h4.33l1.1-6.25Z"/><path class="cls-1" d="M723.49,695.56a9.33,9.33,0,0,1-8,3.52,6,6,0,0,1-5.14-2.49c-1.12-1.62-1.53-3.86-1.21-6.73l2.61-15.61h2.66l-2.59,15.68a12.14,12.14,0,0,0,0,2.41,5,5,0,0,0,1.24,3.2,4.14,4.14,0,0,0,3,1.19,8.82,8.82,0,0,0,5-1.25,6.26,6.26,0,0,0,3-3.57l3-17.66h2.71l-4.24,24.38h-2.61Z"/><path class="cls-1" d="M752.67,696.82a7.12,7.12,0,0,0,4.7-1.47,7.47,7.47,0,0,0,2.71-4.23h2.55a9.27,9.27,0,0,1-3.55,5.85,10,10,0,0,1-6.55,2.13,8.24,8.24,0,0,1-4.95-1.62,8.67,8.67,0,0,1-2.9-4.31,15.46,15.46,0,0,1-.57-6.19l.09-1a18,18,0,0,1,1.16-4.6,13.56,13.56,0,0,1,2.38-3.95,11,11,0,0,1,3.54-2.73,9.85,9.85,0,0,1,4.66-.93,7.94,7.94,0,0,1,5.95,2.52,8.36,8.36,0,0,1,2.07,6.17l-2.55,0a6.54,6.54,0,0,0-1.46-4.55,5.44,5.44,0,0,0-4.12-1.83,7.3,7.3,0,0,0-4.94,1.63,10.27,10.27,0,0,0-3.22,4.84,19.26,19.26,0,0,0-1,6.65,9.06,9.06,0,0,0,1.63,5.58A5.55,5.55,0,0,0,752.67,696.82Z"/><path class="cls-1" d="M776.17,699.08a8.51,8.51,0,0,1-5.07-1.64,9.15,9.15,0,0,1-3.14-4.32,13.35,13.35,0,0,1-.71-5.92l.07-.76a16.4,16.4,0,0,1,2-6.44,12.5,12.5,0,0,1,4.28-4.66,9.88,9.88,0,0,1,5.55-1.54,7.55,7.55,0,0,1,4.6,1.48,8.1,8.1,0,0,1,2.74,4A13.54,13.54,0,0,1,787,685l-.18,1.65H770l-.07.54a10.58,10.58,0,0,0,.36,4.7,7.3,7.3,0,0,0,2.29,3.56,6,6,0,0,0,3.82,1.36,7.81,7.81,0,0,0,3.89-.83,12.23,12.23,0,0,0,3.2-2.42l1.58,1.29a11,11,0,0,1-3.91,3.21A10.82,10.82,0,0,1,776.17,699.08Zm2.84-23a7.06,7.06,0,0,0-5.25,2.08,13.49,13.49,0,0,0-3.49,6.15l14.15,0,.07-.34a7.88,7.88,0,0,0-1.13-5.51A5.15,5.15,0,0,0,779,676.09Z"/><path class="cls-1" d="M792.85,698.63h-2.71l6-34.61h2.7Z"/><path class="cls-1" d="M816.28,695.56a9.33,9.33,0,0,1-8,3.52,6,6,0,0,1-5.14-2.49c-1.13-1.62-1.53-3.86-1.22-6.73l2.62-15.61h2.66l-2.59,15.68a11.43,11.43,0,0,0,0,2.41,5,5,0,0,0,1.24,3.2,4.13,4.13,0,0,0,3,1.19,8.82,8.82,0,0,0,5-1.25,6.26,6.26,0,0,0,3-3.57l3-17.66h2.71l-4.24,24.38h-2.61Z"/><path class="cls-1" d="M827.91,698.63H825.2l6-34.61h2.7Z"/><path class="cls-1" d="M850.33,698.63a9,9,0,0,1-.07-1.72l.2-1.69a12.63,12.63,0,0,1-3.86,2.87,10.37,10.37,0,0,1-4.7,1,7,7,0,0,1-5-2,5.85,5.85,0,0,1-1.73-4.79,7.15,7.15,0,0,1,1.66-4.18,9.43,9.43,0,0,1,4.2-2.75,18,18,0,0,1,6.11-1l5,0,.4-2.79a4.94,4.94,0,0,0-1.08-4,5.32,5.32,0,0,0-4-1.6,7.71,7.71,0,0,0-4.63,1.32,5.78,5.78,0,0,0-2.47,3.59h-2.63a7.53,7.53,0,0,1,3.29-5.22,11.08,11.08,0,0,1,6.71-2,7.8,7.8,0,0,1,5.8,2.28,6.81,6.81,0,0,1,1.66,5.68l-2,12.25-.18,2a9.76,9.76,0,0,0,.18,2.41l0,.27Zm-8-1.9a8.84,8.84,0,0,0,4.74-1.18,10.49,10.49,0,0,0,3.75-3.63l.93-5.39-4.31,0a13.59,13.59,0,0,0-6.69,1.46,5.19,5.19,0,0,0-2.86,4.17A3.89,3.89,0,0,0,839,695.4,4.63,4.63,0,0,0,842.35,696.73Z"/><path class="cls-1" d="M874.26,676.52a9.71,9.71,0,0,0-1.78-.2,7.74,7.74,0,0,0-4.71,1.57,7.47,7.47,0,0,0-2.86,4L862,698.63h-2.66l4.24-24.38h2.63l-.81,3.87a9.65,9.65,0,0,1,3.21-3.29,7.64,7.64,0,0,1,4.14-1.08,6.71,6.71,0,0,1,1.85.32Z"/><path class="cls-2" d="M451.08,384.26h0l34.74-23.9h0c.88-.6.68-2.41-.43-4s-2.73-2.44-3.61-1.84h0l-34.74,23.91h0c-.88.61-.68,2.4.44,4S450.2,384.87,451.08,384.26Z"/><path class="cls-2" d="M534.49,575.49q-13.57,0-14.34,20.36l0,5.5q0,11,3.65,16.9a11.92,11.92,0,0,0,10.84,5.91,11.79,11.79,0,0,0,10.54-5.8q3.69-5.8,3.75-16.71v-3.44q0-11.15-3.73-16.93A11.94,11.94,0,0,0,534.49,575.49Z"/><path class="cls-2" d="M733.31,566.81l-17.68,0-5.71,32.89,18.5.05A20.6,20.6,0,0,0,742,595.05a17.85,17.85,0,0,0,6.5-12.1q.87-7.2-3.19-11.57T733.31,566.81Z"/><polygon class="cls-2" points="842.52 609.83 871.45 609.83 864.05 569.27 842.52 609.83"/><polygon class="cls-1" points="204.61 561.36 143.86 561.36 141.39 575.29 162.82 575.29 152.24 636.19 169.87 636.19 180.4 575.29 202.19 575.29 204.61 561.36"/><polygon class="cls-1" points="260.17 575.29 262.58 561.36 212.37 561.36 199.42 636.19 249.53 636.19 251.94 622.31 219.41 622.31 222.54 604.43 250.04 604.43 252.35 591.07 224.81 591.07 227.58 575.29 260.17 575.29"/><path class="cls-1" d="M297.89,621.22q-3.7,3.25-9.92,3-9.62-.36-9.35-13A119.42,119.42,0,0,1,280,597q3-22,16.91-21.58,5.55.21,8.12,3.13t2.47,9.77l17.53,0q-.61-12.54-7.74-19.68t-19.35-7.35a31.49,31.49,0,0,0-15.34,3.47,34.1,34.1,0,0,0-12.18,10.89A48,48,0,0,0,263,592.82,64.18,64.18,0,0,0,261.14,611q.62,12.49,7.35,19.79t18.45,7.55a36.54,36.54,0,0,0,15.86-3.13,29.21,29.21,0,0,0,11.82-9.41,26.86,26.86,0,0,0,5.16-14l-17.16.21A15.31,15.31,0,0,1,297.89,621.22Z"/><polygon class="cls-1" points="380.74 561.36 372.57 608.59 354.73 561.36 337.57 561.36 324.62 636.19 342.19 636.19 350.42 588.96 368.3 636.19 385.31 636.19 398.31 561.36 380.74 561.36"/><polygon class="cls-1" points="398.01 636.19 415.58 636.19 428.54 561.36 411.01 561.36 398.01 636.19"/><path class="cls-1" d="M468,575.45c3.71.14,6.41,1.18,8.13,3.13s2.53,5.21,2.46,9.77l17.53,0q-.61-12.54-7.74-19.68T469,561.37a31.49,31.49,0,0,0-15.34,3.47,34.1,34.1,0,0,0-12.18,10.89A48,48,0,0,0,434,592.82,64.54,64.54,0,0,0,432.18,611q.63,12.49,7.35,19.79T458,638.3a36.54,36.54,0,0,0,15.86-3.13,29.21,29.21,0,0,0,11.82-9.41,27,27,0,0,0,5.17-14l-17.17.21a15.31,15.31,0,0,1-4.73,9.23q-3.71,3.25-9.92,3-9.61-.36-9.35-13A117.87,117.87,0,0,1,451.05,597Q454.08,575,468,575.45Z"/><path class="cls-3" d="M539.48,561.7l-.72-.09-1.34-.13-.8-.06c-.7,0-1.41-.06-2.13-.06s-1.43,0-2.13.06l-.89.07-1.21.11-.91.12q-.76.1-1.5.24l-.38.07a37.4,37.4,0,0,0-23.16,58.86c8.09,17.69,23.23,33.22,28.4,38.22a2.56,2.56,0,0,0,3.56,0c5.17-5,20.31-20.53,28.4-38.22a37.42,37.42,0,0,0-25.19-59.19Zm9.4,39.95q-.06,10.9-3.75,16.71a11.79,11.79,0,0,1-10.54,5.8,11.92,11.92,0,0,1-10.84-5.91q-3.66-5.91-3.65-16.9l0-5.5q.76-20.36,14.34-20.36a11.94,11.94,0,0,1,10.66,5.79q3.74,5.78,3.73,16.93Z"/><path class="cls-1" d="M552.86,393.57,521.09,347.4a15.12,15.12,0,0,1-4.33,7.14,8.33,8.33,0,0,1,1.34,1.54l28.72,41.72,6.67,9.69c1.76-1.92,3.44-3.83,5-5.69,18.11-21.37,25.43-39.12,25.68-39.71C577.41,374.55,561.6,387.2,552.86,393.57ZM439,399.73l61.5-42.33a15.23,15.23,0,0,1-7.19-21.72l-69.13,47.58a14.76,14.76,0,0,0-3.78,20.55L471,477.34l7.17-5-41.47-60.27A8.9,8.9,0,0,1,439,399.73ZM447,378.39h0l34.74-23.91h0c.87-.6,2.47.21,3.59,1.83s1.32,3.44.43,4l-34.73,23.91h0c-.88.62-2.49-.23-3.61-1.84S446.16,379,447,378.39Z"/><path class="cls-1" d="M517.9,345.15a11.22,11.22,0,0,0,.07-2.72l-2-.55c0-.29-.11-.59-.19-.88,0-.1-.06-.2-.1-.3l1.51-1.38a11.67,11.67,0,0,0-1.29-2.39l-2,.51a9.91,9.91,0,0,0-.83-.88l.61-1.95a12,12,0,0,0-2.32-1.42l-1.46,1.43a11.83,11.83,0,0,0-1.16-.34l-.45-2a11.23,11.23,0,0,0-2.72-.06l-.55,2c-.29.05-.58.11-.87.19l-.3.09L502.5,333a11.21,11.21,0,0,0-2.39,1.29l.51,2a10,10,0,0,0-.88.84l-1.95-.61a11.45,11.45,0,0,0-1.42,2.32l1.44,1.46a9.13,9.13,0,0,0-.35,1.16l-2,.45a11.22,11.22,0,0,0-.07,2.72l2,.54a8.6,8.6,0,0,0,.19.88l.09.3-1.5,1.38a11.49,11.49,0,0,0,1.29,2.4l2-.52a8.7,8.7,0,0,0,.83.88l-.61,1.95a11.55,11.55,0,0,0,2.32,1.42l1.46-1.43a9.65,9.65,0,0,0,1.16.35l.45,2a11.22,11.22,0,0,0,2.72.07l.55-2c.29-.05.58-.12.87-.2a2.63,2.63,0,0,0,.3-.09l1.39,1.51a11.24,11.24,0,0,0,2.39-1.3l-.51-2a10,10,0,0,0,.88-.84l1.94.61a11.06,11.06,0,0,0,1.43-2.32l-1.44-1.46a8.67,8.67,0,0,0,.35-1.16Zm-9.79,3.56a5.4,5.4,0,1,1,3.78-6.64A5.4,5.4,0,0,1,508.11,348.71Z"/><path class="cls-1" d="M519.66,325l1.35-.63a8.15,8.15,0,0,0-.36-1.82l-1.48-.08a7.25,7.25,0,0,0-.51-1.05l.85-1.22a7.7,7.7,0,0,0-.57-.74c-.21-.23-.42-.45-.65-.66l-1.32.67a7.55,7.55,0,0,0-1-.66l.13-1.48a8.71,8.71,0,0,0-1.76-.6l-.81,1.25a7.55,7.55,0,0,0-1.16-.09l-.63-1.35a8.85,8.85,0,0,0-1.83.36l-.08,1.48a7.25,7.25,0,0,0-1.05.51l-1.22-.85c-.25.18-.5.37-.73.57a8.25,8.25,0,0,0-.67.65l.67,1.33a7.71,7.71,0,0,0-.65,1l-1.48-.13a8.74,8.74,0,0,0-.61,1.76l1.25.81a7.68,7.68,0,0,0-.09,1.17l-1.34.63a8.74,8.74,0,0,0,.35,1.82l1.48.08a7.32,7.32,0,0,0,.52,1.05l-.85,1.22a7.7,7.7,0,0,0,.57.74c.2.23.42.45.64.66l1.33-.67a6.91,6.91,0,0,0,1,.66l-.13,1.47a8.45,8.45,0,0,0,1.75.61l.82-1.24a7.45,7.45,0,0,0,1.16.08l.63,1.34a8,8,0,0,0,1.82-.35l.08-1.48a7.91,7.91,0,0,0,1.06-.51l1.21.85c.26-.18.5-.37.74-.57s.46-.42.67-.65l-.68-1.33a6.82,6.82,0,0,0,.66-1l1.48.12a8.42,8.42,0,0,0,.6-1.75l-1.24-.81A7.67,7.67,0,0,0,519.66,325Zm-12.65,1a5.48,5.48,0,0,1,.85-3.9,5.49,5.49,0,0,0,4.92,8.52A5.53,5.53,0,0,1,507,325.94Zm3.16-3.42a3.37,3.37,0,1,1-.29,4.81A3.38,3.38,0,0,1,510.17,322.52Zm3.72,7.86a5.52,5.52,0,0,0-2.3-10.78,5.29,5.29,0,0,0-1.81.65,5.29,5.29,0,0,1,1.81-.65,5.52,5.52,0,0,1,2.3,10.78Z"/><path class="cls-1" d="M522.35,397.85H506l-7.91,45.68H484.88l7.94-45.68H476.75l1.85-10.45h45.56Z"/><path class="cls-1" d="M634.45,338.37A27,27,0,0,0,622.59,316v15.59a10.12,10.12,0,0,1-10.11,10.11H602.39a10.09,10.09,0,0,1-9.87-7.93,9.78,9.78,0,0,1-.24-2.18V316a27.1,27.1,0,0,0-10.7,14.49c-.17.57-.33,1.15-.46,1.74a27,27,0,0,0,14.77,30.58c-5.47,13.31-16.48,29.82-31.63,47.32-1.63,1.89-3.31,3.78-5,5.69a400.87,400.87,0,0,1-33,32.27,393.17,393.17,0,0,1-42.45,32.53l-7.37,4.69c-33.08,20.45-60.59,28.34-69.8,17.83-7.35-8.39-1.54-26.79,13.62-49.17-25.71,32.77-37.2,60.85-27,72.47,11.72,13.39,49,1.11,92.31-27.9q3.58-2.39,7.21-4.93a472.89,472.89,0,0,0,39.6-31.2,470,470,0,0,0,35.35-34.27l10.65,15.47L547.1,465.36a3.38,3.38,0,1,0,1,1.44l31.25-21.74,4,5.78-31.22,21.72a3.39,3.39,0,1,0,1,1.44l31.21-21.71,4,5.78-31.18,21.69a3.39,3.39,0,1,0,1,1.44l31.18-21.68,3.62,5.26a8.91,8.91,0,0,1-2.3,12.39l-66.75,45.94a8.9,8.9,0,0,1-12.39-2.29l-6.12-8.89-6.72-9.77A55,55,0,0,1,491.4,507c-16.17,9.4-43.12,18.38-43.12,18.38,18-1.56,37.57-7.11,48.49-10.58l21.91,31.85a14.78,14.78,0,0,0,20.55,3.8l70.37-48.43a14.77,14.77,0,0,0,3.79-20.54l-40.6-59c18.92-21.21,32.79-41.38,39.84-57.65A27,27,0,0,0,634.45,338.37ZM568.74,518.73c-8.68,6.21-17.35,9-19.36,6.17s3.41-10.12,12.09-16.33,17.35-9,19.36-6.17S577.43,512.52,568.74,518.73Z"/><path class="cls-1" d="M633.74,611.11a27.22,27.22,0,0,1-5.2,14.09,29.52,29.52,0,0,1-11.92,9.48,37,37,0,0,1-16,3.16q-11.8-.26-18.6-7.61t-7.4-20A64.79,64.79,0,0,1,576.47,592,48.26,48.26,0,0,1,584,574.77a34.44,34.44,0,0,1,12.27-11,31.88,31.88,0,0,1,15.47-3.5q12.32.21,19.5,7.41t7.8,19.84l-17.67,0q.1-6.88-2.49-9.84t-8.18-3.16q-14-.47-17,21.75a118.16,118.16,0,0,0-1.4,14.35q-.27,12.75,9.43,13.11c4.17.14,7.51-.89,10-3.08a15.44,15.44,0,0,0,4.77-9.3Z"/><path class="cls-1" d="M689.64,604.79H661.92l-3.16,18h32.79l-2.43,14H638.61l13-75.42h50.62l-2.44,14H667l-2.8,15.9H692Z"/><path class="cls-1" d="M729,610.13h-9.84l-4.66,26.67H696.73l13.06-75.42,26.62,0q12.8,0,19.71,6t6.19,16.33a24.35,24.35,0,0,1-4.71,13.53,27.74,27.74,0,0,1-11.6,8.46l10.15,30.19v.88H737.24Zm-7.46-14,10.36.1a13.09,13.09,0,0,0,7.39-2.07,11.46,11.46,0,0,0,4.48-5.69,13.32,13.32,0,0,0,.77-7q-1-5.78-7.35-6.08l-12,0Z"/><path class="cls-1" d="M827.59,611.11a27.24,27.24,0,0,1-5.21,14.09,29.39,29.39,0,0,1-11.92,9.48,36.92,36.92,0,0,1-16,3.16q-11.81-.26-18.59-7.61t-7.41-20A64.82,64.82,0,0,1,770.32,592a48.25,48.25,0,0,1,7.51-17.23,34.38,34.38,0,0,1,12.28-11,31.82,31.82,0,0,1,15.46-3.5q12.33.21,19.5,7.41t7.8,19.84l-17.67,0q.1-6.88-2.48-9.84t-8.19-3.16q-14-.47-17,21.75a120.29,120.29,0,0,0-1.4,14.35q-.26,12.75,9.43,13.11,6.27.21,10-3.08a15.48,15.48,0,0,0,4.76-9.3Z"/><path class="cls-1" d="M876.75,622.66H852.66L846,636.8H826.45l39.93-75.42h16.69L897,636.8H878.56Zm-17.46-14h15.64l-3.31-26Z"/></svg>